<?xml version="1.0" encoding="UTF-8"?>
<!DOCTYPE svg PUBLIC "-//W3C//DTD SVG 1.1//EN" "http://www.w3.org/Graphics/SVG/1.1/DTD/svg11.dtd">
<!-- Creator: CorelDRAW 2019 (64-Bit) -->
<svg xmlns="http://www.w3.org/2000/svg" xml:space="preserve" width="1500px" height="700px" version="1.1" style="shape-rendering:geometricPrecision; text-rendering:geometricPrecision; image-rendering:optimizeQuality; fill-rule:evenodd; clip-rule:evenodd"
viewBox="0 0 15000000 7000000"
 xmlns:xlink="http://www.w3.org/1999/xlink"
 xmlns:xodm="http://www.corel.com/coreldraw/odm/2003">
 <defs>
  <style type="text/css">
   <![CDATA[
    .str0 {stroke:#EDF3FF;stroke-width:23600;stroke-miterlimit:22.9256}
    .str1 {stroke:#F6FBFF;stroke-width:23600;stroke-miterlimit:22.9256}
    .fil2 {fill:none}
    .fil1 {fill:#008CFF}
    .fil4 {fill:#5CB6FF}
    .fil3 {fill:#EDF3FF}
    .fil0 {fill:#F6FBFF}
   ]]>
  </style>
    <clipPath id="id0">
     <path d="M0 0l15000000 0 0 7000000 -15000000 0 0 -7000000z"/>
    </clipPath>
     <clipPath id="id1">
      <path d="M11866100 3266700c261500,180200 327400,538300 147200,799800 -180300,261500 -538300,327400 -799800,147100 -261500,-180200 -327400,-538200 -147200,-799700 180200,-261500 538300,-327400 799800,-147200z"/>
     </clipPath>
     <clipPath id="id2">
      <path d="M0 0l15000000 0 0 7000000 -15000000 0 0 -7000000z"/>
     </clipPath>
    <clipPath id="id3">
     <path d="M13079700 1113000c368400,253800 461200,758200 207300,1126600 -253800,368300 -758200,461100 -1126600,207300 -368300,-253900 -461100,-758300 -207300,-1126600 253900,-368400 758300,-461200 1126600,-207300z"/>
    </clipPath>
 </defs>
 <g id="Layer_x0020_1">
  <metadata id="CorelCorpID_0Corel-Layer"/>
  <g id="_2521259561472">
   <polygon class="fil0" points="0,0 15000000,0 15000000,7000000 0,7000000 "/>
   <g style="clip-path:url(#id0)">
    <g>
     <g>
     </g>
    </g>
    <g style="clip-path:url(#id1)">
     <g>
      <g>
       <rect class="fil1" transform="matrix(0.292268 0.201425 -0.460991 0.668899 1.14291E+07 2.85644E+06)" width="30000" height="1636900"/>
       <rect class="fil1" transform="matrix(0.292268 0.201425 -0.460991 0.668899 1.1486E+07 2.89564E+06)" width="30000" height="1636900"/>
       <rect class="fil1" transform="matrix(0.292268 0.201425 -0.460991 0.668899 1.15429E+07 2.93485E+06)" width="30000" height="1636900"/>
       <rect class="fil1" transform="matrix(0.292268 0.201425 -0.460991 0.668899 1.15998E+07 2.97406E+06)" width="30000" height="1636900"/>
       <rect class="fil1" transform="matrix(0.292268 0.201425 -0.460991 0.668899 1.16567E+07 3.01326E+06)" width="30000" height="1636900"/>
       <rect class="fil1" transform="matrix(0.292268 0.201425 -0.460991 0.668899 1.17136E+07 3.05247E+06)" width="30000" height="1636900"/>
       <rect class="fil1" transform="matrix(0.292268 0.201425 -0.460991 0.668899 1.17705E+07 3.09168E+06)" width="30000" height="1636900"/>
       <rect class="fil1" transform="matrix(0.292268 0.201425 -0.460991 0.668899 1.18274E+07 3.13088E+06)" width="30000" height="1636900"/>
       <rect class="fil1" transform="matrix(0.292268 0.201425 -0.460991 0.668899 1.18843E+07 3.17009E+06)" width="30000" height="1636900"/>
       <rect class="fil1" transform="matrix(0.292268 0.201425 -0.460991 0.668899 1.19411E+07 3.2093E+06)" width="30000" height="1636900"/>
       <rect class="fil1" transform="matrix(0.292268 0.201425 -0.460991 0.668899 1.1998E+07 3.2485E+06)" width="30000" height="1636900"/>
       <rect class="fil1" transform="matrix(0.292268 0.201425 -0.460991 0.668899 1.20549E+07 3.28771E+06)" width="30000" height="1636900"/>
       <rect class="fil1" transform="matrix(0.292268 0.201425 -0.460991 0.668899 1.21118E+07 3.32692E+06)" width="30000" height="1636900"/>
       <rect class="fil1" transform="matrix(0.292268 0.201425 -0.460991 0.668899 1.21687E+07 3.36612E+06)" width="30000" height="1636900"/>
       <rect class="fil1" transform="matrix(0.292268 0.201425 -0.460991 0.668899 1.22256E+07 3.40533E+06)" width="30000" height="1636900"/>
       <rect class="fil1" transform="matrix(0.292268 0.201425 -0.460991 0.668899 1.22825E+07 3.44454E+06)" width="30000" height="1636900"/>
       <rect class="fil1" transform="matrix(0.292268 0.201425 -0.460991 0.668899 1.23394E+07 3.48374E+06)" width="30000" height="1636900"/>
       <rect class="fil1" transform="matrix(0.292268 0.201425 -0.460991 0.668899 1.23963E+07 3.52295E+06)" width="30000" height="1636900"/>
      </g>
     </g>
    </g>
    <g style="clip-path:url(#id2)">
     <path class="fil2" d="M11866100 3266700c261500,180200 327400,538300 147200,799800 -180300,261500 -538300,327400 -799800,147100 -261500,-180200 -327400,-538200 -147200,-799700 180200,-261500 538300,-327400 799800,-147200z"/>
     <path class="fil3" d="M14480000 -490000c0,0 560000,1200000 -1040000,2780000 -1600000,1580000 1515400,2060000 -722300,3730000 -2237700,1670000 -97600,3730000 -97600,3730000l2719900 -1340000 0 -7703200 0 -1420000 -860000 223200z"/>
     <path class="fil3" d="M2636100 -286200c0,0 -1780000,185300 -1818300,1818300 -38200,1633000 1358300,1708700 0,3081800 -1358200,1373000 1816300,3043900 -700,4260000 -1817100,1216100 -2737500,-1873900 -2737500,-1873900l900000 -7000000 3656500 -286200z"/>
    </g>
   </g>
   <polygon class="fil2" points="0,0 15000000,0 15000000,7000000 0,7000000 "/>
   <polygon class="fil2 str0" points="2165800,5941200 2479300,5823200 2425300,6150700 "/>
   <polygon class="fil2 str1" points="6552800,5248000 6866300,5130000 6812300,5457500 "/>
   <polygon class="fil2 str0" points="2479300,1437000 2792800,1319000 2738800,1646500 "/>
   <circle class="fil3" cx="1572800" cy="5053500" r="110500"/>
   <circle class="fil3" cx="1793800" cy="2991800" r="110500"/>
   <circle class="fil3" cx="4855000" cy="6011800" r="94300"/>
   <g>
   </g>
   <g style="clip-path:url(#id3)">
    <g>
     <g id="_2521259563040">
      <rect class="fil1" transform="matrix(0.411698 0.283734 -0.649367 0.942232 1.24642E+07 535055)" width="30000" height="1636900"/>
      <rect class="fil1" transform="matrix(0.411698 0.283734 -0.649367 0.942232 1.25444E+07 590282)" width="30000" height="1636900"/>
      <rect class="fil1" transform="matrix(0.411698 0.283734 -0.649367 0.942232 1.26245E+07 645510)" width="30000" height="1636900"/>
      <rect class="fil1" transform="matrix(0.411698 0.283734 -0.649367 0.942232 1.27046E+07 700738)" width="30000" height="1636900"/>
      <rect class="fil1" transform="matrix(0.411698 0.283734 -0.649367 0.942232 1.27848E+07 755965)" width="30000" height="1636900"/>
      <rect class="fil1" transform="matrix(0.411698 0.283734 -0.649367 0.942232 1.28649E+07 811193)" width="30000" height="1636900"/>
      <rect class="fil1" transform="matrix(0.411698 0.283734 -0.649367 0.942232 1.2945E+07 866421)" width="30000" height="1636900"/>
      <rect class="fil1" transform="matrix(0.411698 0.283734 -0.649367 0.942232 1.30252E+07 921648)" width="30000" height="1636900"/>
      <rect class="fil1" transform="matrix(0.411698 0.283734 -0.649367 0.942232 1.31053E+07 976876)" width="30000" height="1636900"/>
      <rect class="fil1" transform="matrix(0.411698 0.283734 -0.649367 0.942232 1.31855E+07 1.0321E+06)" width="30000" height="1636900"/>
      <rect class="fil1" transform="matrix(0.411698 0.283734 -0.649367 0.942232 1.32656E+07 1.08733E+06)" width="30000" height="1636900"/>
      <rect class="fil1" transform="matrix(0.411698 0.283734 -0.649367 0.942232 1.33457E+07 1.14256E+06)" width="30000" height="1636900"/>
      <rect class="fil1" transform="matrix(0.411698 0.283734 -0.649367 0.942232 1.34259E+07 1.19779E+06)" width="30000" height="1636900"/>
      <rect class="fil1" transform="matrix(0.411698 0.283734 -0.649367 0.942232 1.3506E+07 1.25301E+06)" width="30000" height="1636900"/>
      <rect class="fil1" transform="matrix(0.411698 0.283734 -0.649367 0.942232 1.35861E+07 1.30824E+06)" width="30000" height="1636900"/>
      <rect class="fil1" transform="matrix(0.411698 0.283734 -0.649367 0.942232 1.36663E+07 1.36347E+06)" width="30000" height="1636900"/>
      <rect class="fil1" transform="matrix(0.411698 0.283734 -0.649367 0.942232 1.37464E+07 1.4187E+06)" width="30000" height="1636900"/>
      <rect class="fil1" transform="matrix(0.411698 0.283734 -0.649367 0.942232 1.38265E+07 1.47392E+06)" width="30000" height="1636900"/>
     </g>
    </g>
   </g>
   <path class="fil2" d="M13079700 1113000c368400,253800 461200,758200 207300,1126600 -253800,368300 -758200,461100 -1126600,207300 -368300,-253900 -461100,-758300 -207300,-1126600 253900,-368400 758300,-461200 1126600,-207300z"/>
   <circle class="fil4" cx="7129700" cy="3165100" r="163700"/>
   <circle class="fil4" cx="7784800" cy="2124900" r="81900"/>
  </g>
 </g>
</svg>
